<?xml version="1.0" encoding="UTF-8" standalone="no"?>
<!-- Created with Inkscape (http://www.inkscape.org/) -->

<svg
   xmlns:dc="http://purl.org/dc/elements/1.1/"
   xmlns:cc="http://creativecommons.org/ns#"
   xmlns:rdf="http://www.w3.org/1999/02/22-rdf-syntax-ns#"
   xmlns:svg="http://www.w3.org/2000/svg"
   xmlns="http://www.w3.org/2000/svg"
   xmlns:sodipodi="http://sodipodi.sourceforge.net/DTD/sodipodi-0.dtd"
   xmlns:inkscape="http://www.inkscape.org/namespaces/inkscape"
   width="111.19888mm"
   height="74.963867mm"
   viewBox="0 0 394.01176 265.62"
   id="svg2"
   version="1.1"
   inkscape:version="0.91 r13725"
   sodipodi:docname="AdidasBOS.svg">
  <defs
     id="defs4">
    <clipPath
       id="clipPath3350"
       clipPathUnits="userSpaceOnUse">
      <path
         inkscape:connector-curvature="0"
         id="path3352"
         d="M 0,792 612,792 612,0 0,0 0,792 Z" />
    </clipPath>
  </defs>
  <sodipodi:namedview
     id="base"
     pagecolor="#ffffff"
     bordercolor="#666666"
     borderopacity="1.0"
     inkscape:pageopacity="0.0"
     inkscape:pageshadow="2"
     inkscape:zoom="0.35"
     inkscape:cx="-482.27984"
     inkscape:cy="589.9529"
     inkscape:document-units="px"
     inkscape:current-layer="layer1"
     showgrid="false"
     fit-margin-top="0"
     fit-margin-left="0"
     fit-margin-right="0"
     fit-margin-bottom="0"
     inkscape:window-width="1920"
     inkscape:window-height="1017"
     inkscape:window-x="-8"
     inkscape:window-y="-8"
     inkscape:window-maximized="1" />
  <metadata
     id="metadata7">
    <rdf:RDF>
      <cc:Work
         rdf:about="">
        <dc:format>image/svg+xml</dc:format>
        <dc:type
           rdf:resource="http://purl.org/dc/dcmitype/StillImage" />
        <dc:title></dc:title>
      </cc:Work>
    </rdf:RDF>
  </metadata>
  <g
     inkscape:label="Layer 1"
     inkscape:groupmode="layer"
     id="layer1"
     transform="translate(-857.27984,-856.6951)">
    <g
       transform="matrix(1.25,0,0,-1.25,672.27934,1484.1946)"
       inkscape:label="Badge_of_Sport_Logo_BWp"
       id="g3344">
      <g
         id="g3346">
        <g
           clip-path="url(#clipPath3350)"
           id="g3348">
          <g
             transform="translate(439.1318,289.5039)"
             id="g3354">
            <path
               inkscape:connector-curvature="0"
               id="path3356"
               style="fill:#231f20;fill-opacity:1;fill-rule:nonzero;stroke:none"
               d="m 0,0 c -14.883,0 -23.726,7.609 -24.262,18.418 l 13.991,0 c 0,-3.359 2.119,-8.324 11.144,-8.486 6.029,0 8.865,3.535 8.865,6.185 -0.357,4.248 -5.673,4.6 -11.349,5.49 -5.651,0.893 -10.434,1.942 -13.975,3.717 -4.435,2.303 -7.449,7.272 -7.449,12.926 0,9.57 8.332,17.184 22.152,17.184 13.44,0 21.948,-7.082 22.836,-17.534 l -13.457,0 c -0.183,2.821 -0.709,7.27 -8.681,7.27 -5.317,0 -8.84,-1.08 -9.206,-4.789 0,-5.5 11.157,-5.137 19.831,-7.432 C 18.76,30.818 24.078,25.682 24.078,18.418 24.078,5.139 13.275,0 0,0" />
          </g>
          <g
             transform="translate(181.9976,378.3984)"
             id="g3358">
            <path
               inkscape:connector-curvature="0"
               id="path3360"
               style="fill:#231f20;fill-opacity:1;fill-rule:nonzero;stroke:none"
               d="m 0,0 46.577,26.742 24.609,-42.5 -62.146,0 L 0,0 Z" />
          </g>
          <path
             inkscape:connector-curvature="0"
             id="path3362"
             style="fill:#231f20;fill-opacity:1;fill-rule:nonzero;stroke:none"
             d="m 286.31,290.744 -13.288,0 0,53.662 13.288,0 0,-53.662 z" />
          <g
             transform="translate(175.7974,289.5039)"
             id="g3364">
            <path
               inkscape:connector-curvature="0"
               id="path3366"
               style="fill:#231f20;fill-opacity:1;fill-rule:evenodd;stroke:none"
               d="m 0,0 c -15.218,0 -27.797,12.586 -27.797,27.812 0,15.407 12.579,27.622 27.797,27.622 5.848,0 11.339,-1.594 15.944,-4.788 l 0,4.256 13.1,0 0,-53.662 -13.1,0 0,3.551 C 11.514,1.77 6.028,0 0,0 m -15.048,27.812 c 0,-8.328 7.081,-15.226 15.411,-15.226 8.5,0 15.581,6.898 15.581,15.226 0,8.325 -7.081,15.407 -15.581,15.407 -8.33,0 -15.411,-7.082 -15.411,-15.407" />
          </g>
          <g
             transform="translate(354.6592,362.6406)"
             id="g3368">
            <path
               inkscape:connector-curvature="0"
               id="path3370"
               style="fill:#231f20;fill-opacity:1;fill-rule:nonzero;stroke:none"
               d="M 0,0 -64.814,112.445 -18.232,139.359 62.344,0 0,0 Z" />
          </g>
          <g
             transform="translate(237.4268,289.5039)"
             id="g3372">
            <path
               inkscape:connector-curvature="0"
               id="path3374"
               style="fill:#231f20;fill-opacity:1;fill-rule:evenodd;stroke:none"
               d="m 0,0 c -15.405,0 -27.971,12.586 -27.971,27.812 0,15.407 12.566,27.622 27.971,27.622 5.843,0 11.166,-1.594 15.756,-4.788 l 0,22.491 13.274,0 0,-71.897 -13.274,0 0,3.551 C 11.166,1.77 5.843,0 0,0 m -15.234,27.812 c 0,-8.328 7.082,-15.226 15.59,-15.226 8.321,0 15.4,6.898 15.4,15.226 0,8.325 -7.079,15.407 -15.4,15.407 -8.508,0 -15.59,-7.082 -15.59,-15.407" />
          </g>
          <g
             transform="translate(236.3608,426.2188)"
             id="g3376">
            <path
               inkscape:connector-curvature="0"
               id="path3378"
               style="fill:#231f20;fill-opacity:1;fill-rule:nonzero;stroke:none"
               d="m 0,0 46.762,26.732 52.227,-90.31 -49.04,0 0,-13.285 -13.288,0 0,13.285 L 0,0 Z" />
          </g>
          <g
             transform="translate(380.6924,289.5039)"
             id="g3380">
            <path
               inkscape:connector-curvature="0"
               id="path3382"
               style="fill:#231f20;fill-opacity:1;fill-rule:evenodd;stroke:none"
               d="m 0,0 c -15.223,0 -27.809,12.586 -27.809,27.812 0,15.407 12.586,27.622 27.809,27.622 5.848,0 11.318,-1.594 15.75,-4.788 l 0,4.256 13.289,0 0,-53.662 -13.289,0 0,3.551 C 11.318,1.77 6.022,0 0,0 m -14.879,27.812 c 0,-8.328 7.084,-15.226 15.406,-15.226 8.327,0 15.223,6.898 15.223,15.226 0,8.325 -6.896,15.407 -15.223,15.407 -8.322,0 -15.406,-7.082 -15.406,-15.407" />
          </g>
          <g
             transform="translate(335.3496,362.6406)"
             id="g3384">
            <path
               inkscape:connector-curvature="0"
               id="path3386"
               style="fill:#231f20;fill-opacity:1;fill-rule:evenodd;stroke:none"
               d="m 0,0 13.107,0 0,-71.897 -13.107,0 0,3.551 c -4.422,-3.021 -9.911,-4.791 -15.934,-4.791 -15.232,0 -27.807,12.586 -27.807,27.813 0,15.406 12.575,27.621 27.807,27.621 6.023,0 11.338,-1.594 15.934,-4.787 L 0,0 Z m -30.803,-45.324 c 0,-8.328 7.068,-15.227 15.237,-15.227 8.491,0 15.566,6.899 15.566,15.227 0,8.324 -7.075,15.406 -15.566,15.406 -8.169,0 -15.237,-7.082 -15.237,-15.406" />
          </g>
        </g>
      </g>
    </g>
  </g>
</svg>
